<?xml version="1.0" encoding="utf-8"?>
<!-- Generator: Adobe Illustrator 21.0.0, SVG Export Plug-In . SVG Version: 6.00 Build 0)  -->
<svg version="1.1" id="Layer_1" xmlns="http://www.w3.org/2000/svg" xmlns:xlink="http://www.w3.org/1999/xlink" x="0px" y="0px"
	 viewBox="0 0 100 100" style="enable-background:new 0 0 100 100;" xml:space="preserve">
<style type="text/css">
	.st0{fill:#67AEC7;}
	.st1{fill:#FFFFFF;}
</style>
<g id="linkedin">
	<path class="st0" d="M88.5,11.7c-5.8-5.8-11.6-5.8-21.7-5.8h-34c-10.1,0-15.9,0-21.7,5.8c-5.8,5.8-5.8,11.6-5.8,21.7v34
		c0,10.1,0,15.9,5.8,21.7c5.8,5.8,11.6,5.8,21.7,5.8h34c10.1,0,15.9,0,21.7-5.8c5.8-5.8,5.8-11.6,5.8-21.7v-34
		C94.3,23.3,94.3,17.5,88.5,11.7z"/>
	<g>
		<rect x="35.5" y="45.2" class="st1" width="5.9" height="18.9"/>
		<path class="st1" d="M57.5,45c-3.4,0-5.5,1.8-5.9,3.1v-3H45c0.1,1.6,0,18.9,0,18.9h6.6V53.9c0-0.6,0-1.1,0.1-1.5
			c0.5-1.1,1.4-2.3,3.2-2.3c2.3,0,3.3,1.7,3.3,4.3v9.8H65V53.6C65,47.7,61.7,45,57.5,45z"/>
		<path class="st1" d="M38.3,36.3c-2.2,0-3.6,1.4-3.6,3.3c0,1.8,1.4,3.3,3.5,3.3h0c2.2,0,3.6-1.4,3.6-3.3
			C41.8,37.7,40.5,36.3,38.3,36.3z"/>
	</g>
</g>
</svg>
