<?xml version="1.0" encoding="utf-8"?>
<!-- Generator: Adobe Illustrator 21.0.0, SVG Export Plug-In . SVG Version: 6.00 Build 0)  -->
<svg version="1.1" id="Layer_1" xmlns="http://www.w3.org/2000/svg" xmlns:xlink="http://www.w3.org/1999/xlink" x="0px" y="0px"
	 viewBox="0 0 100 100" style="enable-background:new 0 0 100 100;" xml:space="preserve">
<style type="text/css">
	.st0{fill:#A9A68E;}
	.st1{fill:#FFFFFF;}
</style>
<g id="instagram">
	<path class="st0" d="M88.2,11.6c-5.8-5.8-11.6-5.8-21.7-5.8h-34c-10.1,0-15.9,0-21.7,5.8c-5.8,5.8-5.8,11.6-5.8,21.7v34
		c0,10.1,0,15.9,5.8,21.7c5.8,5.8,11.6,5.8,21.7,5.8h34c10.1,0,15.9,0,21.7-5.8c5.8-5.8,5.8-11.6,5.8-21.7v-34
		C94.1,23.2,94.1,17.4,88.2,11.6z"/>
	<path class="st1" d="M58,35.2H39.7c-3.2,0-5.7,2.6-5.7,5.7V47v12.2c0,3.2,2.6,5.7,5.7,5.7H58c3.2,0,5.7-2.6,5.7-5.7V47V41
		C63.7,37.8,61.2,35.2,58,35.2z M59.6,38.7l0.7,0v0.7v4.4l-5,0l0-5L59.6,38.7z M44.6,47c1-1.3,2.5-2.2,4.2-2.2s3.3,0.9,4.2,2.2
		c0.6,0.9,1,1.9,1,3.1c0,2.9-2.4,5.2-5.2,5.2s-5.2-2.3-5.2-5.2C43.6,49,44,47.9,44.6,47z M60.8,59.2c0,1.6-1.3,2.8-2.9,2.8H39.7
		c-1.6,0-2.9-1.3-2.9-2.8V47h4.4c-0.4,0.9-0.6,2-0.6,3.1c0,4.5,3.6,8.1,8.1,8.1c4.5,0,8.1-3.7,8.1-8.1c0-1.1-0.2-2.1-0.6-3.1h4.4
		V59.2z"/>
</g>
</svg>
