<?xml version="1.0" encoding="utf-8"?>
<!-- Generator: Adobe Illustrator 21.0.0, SVG Export Plug-In . SVG Version: 6.00 Build 0)  -->
<svg version="1.1" id="Layer_1" xmlns="http://www.w3.org/2000/svg" xmlns:xlink="http://www.w3.org/1999/xlink" x="0px" y="0px"
	 viewBox="0 0 100 100" style="enable-background:new 0 0 100 100;" xml:space="preserve">
<style type="text/css">
	.st0{fill:#39B2E5;}
	.st1{fill:#FFFFFF;}
</style>
<g id="twitter">
	<path class="st0" d="M88.9,11.6c-5.8-5.8-11.6-5.8-21.7-5.8h-34c-10.1,0-15.9,0-21.7,5.8c-5.8,5.8-5.8,11.6-5.8,21.7v34
		c0,10.1,0,15.9,5.8,21.7c5.8,5.8,11.6,5.8,21.7,5.8h34c10.1,0,15.9,0,21.7-5.8c5.8-5.8,5.8-11.6,5.8-21.7v-34
		C94.7,23.2,94.7,17.4,88.9,11.6z"/>
	<path class="st1" d="M65.5,39.5c-1.2,0.6-2.4,0.9-3.8,1.1c1.4-0.9,2.4-2.2,2.9-3.9c-1.3,0.8-2.7,1.4-4.2,1.7
		c-1.2-1.4-2.9-2.2-4.8-2.2c-3.6,0-6.5,3.1-6.5,7c0,0.5,0.1,1.1,0.2,1.6c-5.4-0.3-10.3-3.1-13.5-7.3c-0.6,1-0.9,2.2-0.9,3.5
		c0,2.4,1.2,4.6,2.9,5.9c-1.1,0-2.1-0.3-3-0.9c0,0,0,0.1,0,0.1c0,3.4,2.3,6.2,5.2,6.9c-0.5,0.2-1.1,0.2-1.7,0.2
		c-0.4,0-0.8,0-1.2-0.1c0.8,2.8,3.2,4.8,6.1,4.9c-2.2,1.9-5.1,3-8.1,3c-0.5,0-1.1,0-1.6-0.1c2.9,2,6.3,3.2,10,3.2
		c12,0,18.6-10.7,18.6-20c0-0.3,0-0.6,0-0.9C63.5,42.1,64.6,40.9,65.5,39.5z"/>
</g>
</svg>
