<?xml version="1.0" encoding="utf-8"?>
<!-- Generator: Adobe Illustrator 21.0.0, SVG Export Plug-In . SVG Version: 6.00 Build 0)  -->
<svg version="1.1" id="Layer_1" xmlns="http://www.w3.org/2000/svg" xmlns:xlink="http://www.w3.org/1999/xlink" x="0px" y="0px"
	 viewBox="0 0 100 100" style="enable-background:new 0 0 100 100;" xml:space="preserve">
<style type="text/css">
	.st0{fill:#E63837;}
	.st1{fill:#FFFFFF;}
</style>
<g id="youtube">
	<path class="st0" d="M88.7,11.6c-5.8-5.8-11.6-5.8-21.7-5.8h-34c-10.1,0-15.9,0-21.7,5.8c-5.8,5.8-5.8,11.6-5.8,21.7v34
		c0,10.1,0,15.9,5.8,21.7c5.8,5.8,11.6,5.8,21.7,5.8h34c10.1,0,15.9,0,21.7-5.8c5.8-5.8,5.8-11.6,5.8-21.7v-34
		C94.5,23.2,94.5,17.4,88.7,11.6z"/>
	<path class="st1" d="M64.2,43.1c0-0.1,0-0.2-0.1-0.3c0-0.1,0-0.1,0-0.2c-0.4-1.1-1.4-1.9-2.7-1.9h0.2c0,0-5-0.8-11.7-0.8
		c-6.7,0-11.7,0.8-11.7,0.8h0.2c-1.3,0-2.3,0.8-2.7,1.9c0,0,0,0.1,0,0.2c0,0.1-0.1,0.2-0.1,0.3c-0.2,1.3-0.5,3.9-0.5,7
		c0,3.1,0.3,5.7,0.5,7c0,0.1,0,0.2,0.1,0.3c0,0.1,0,0.1,0,0.2c0.4,1.1,1.4,1.9,2.7,1.9h-0.2c0,0,5,0.8,11.7,0.8
		c6.7,0,11.7-0.8,11.7-0.8h-0.2c1.2,0,2.3-0.8,2.7-1.9c0-0.1,0-0.1,0-0.2c0-0.1,0.1-0.2,0.1-0.3c0.2-1.3,0.5-3.9,0.5-7
		C64.7,47,64.4,44.4,64.2,43.1z M54.3,50.8l-6,4.3c-0.1,0.1-0.3,0.1-0.4,0.1c-0.1,0-0.2,0-0.3-0.1c-0.2-0.1-0.4-0.4-0.4-0.6v-8.7
		c0-0.3,0.2-0.5,0.4-0.6c0.2-0.1,0.5-0.1,0.8,0.1l6,4.3c0.2,0.1,0.3,0.4,0.3,0.6C54.5,50.4,54.4,50.6,54.3,50.8z"/>
</g>
</svg>
