<?xml version="1.0" encoding="utf-8"?>
<!-- Generator: Adobe Illustrator 22.0.0, SVG Export Plug-In . SVG Version: 6.00 Build 0)  -->
<svg version="1.1" id="Layer_1" xmlns="http://www.w3.org/2000/svg" xmlns:xlink="http://www.w3.org/1999/xlink" x="0px" y="0px"
	 viewBox="0 0 315 118.2" style="enable-background:new 0 0 315 118.2;" xml:space="preserve">
<style type="text/css">
	.st0{fill:#FFFFFF;}
	.st1{fill:#FFDD4F;}
</style>
<g>
	<g>
		<path class="st0" d="M13.9,87.9C2.4,87.9,0,81.4,0,76V61.1h6.8v14.5c0,3.7,1.2,6.2,7.1,6.2c5.9,0,7.1-2.5,7.1-6.2V61.1h6.8V76
			C27.7,81.4,25.3,87.9,13.9,87.9z"/>
	</g>
	<g>
		<path class="st0" d="M59.1,87.3h-5.8L38,70.9v16.5h-6.6V61.1h6.5L52.5,77V61.1h6.6V87.3z"/>
	</g>
	<g>
		<path class="st0" d="M69.5,87.3h-6.8V61.1h6.8V87.3z"/>
	</g>
	<g>
		<path class="st0" d="M90.1,87.3h-6.2L71.2,61.1h7.3L87,79l8.6-17.9h7.4L90.1,87.3z"/>
	</g>
	<g>
		<path class="st0" d="M128.3,87.3h-24.1V61.1h23.7v6.1H111v3.5h14.6v6.1H111v4.3h17.3V87.3z"/>
	</g>
	<g>
		<path class="st0" d="M158.6,87.3h-8.4l-7-9.5h-5.9v9.5h-6.8V61.1H146c5.1,0,10.9,0.9,10.9,8.2c0,4.4-2.8,7-5.9,7.8L158.6,87.3z
			 M137.2,71.9h8.1c4.5,0,4.8-0.9,4.8-2.4c0-1.5-0.3-2.4-4.8-2.4h-8.1V71.9z"/>
	</g>
	<g>
		<path class="st0" d="M172.3,87.9c-11.2,0-13.9-5.9-14.4-7.7l-0.3-1l6.4-2l0.4,0.8c0.5,1.1,1.8,3.7,8.1,3.7c3.7,0,6-1.2,6-2.3
			c0-0.9-1.6-1.7-4.3-2l-5.8-0.8c-8.3-1.1-9.6-5.4-9.6-7.9c0-5.3,4.5-8.3,12.3-8.3c7.5,0,12,2.3,13.8,7.2l0.4,1l-6.4,2.1l-0.3-1
			c-0.5-1.5-1.9-3.3-7.5-3.3c-2.6,0-5.4,0.6-5.4,2c0,0.9,2.5,1.4,4.5,1.7l5.7,0.9c6.3,1,9.5,3.7,9.5,8
			C185.2,84.7,180.5,87.9,172.3,87.9z"/>
	</g>
	<g>
		<path class="st0" d="M194.5,87.3h-6.8V61.1h6.8V87.3z"/>
	</g>
	<g>
		<path class="st0" d="M214.6,87.3h-6.8V67.3H197v-6.1h28.4v6.1h-10.8V87.3z"/>
	</g>
	<g>
		<path class="st0" d="M239.7,87.3h-6.8V77L220,61.1h8.4l7.9,9.6l7.8-9.6h8.5L239.7,77V87.3z"/>
	</g>
	<g>
		<g>
			<path class="st0" d="M17.6,117.6h-6.8V97.5H0v-6.1h28.4v6.1H17.6V117.6z"/>
		</g>
		<g>
			<path class="st0" d="M43.7,118.2c-11.4,0-15.4-7.3-15.4-13.5c0-8.7,5.8-13.9,15.4-13.9s15.4,5.2,15.4,13.9
				C59.1,110.9,55,118.2,43.7,118.2z M43.7,96.9c-2.6,0-8.6,0.7-8.6,7.5c0,6.7,5.4,7.7,8.6,7.7c3.2,0,8.6-1,8.6-7.7
				C52.3,97.7,46.2,96.9,43.7,96.9z"/>
		</g>
		<g>
			<path class="st0" d="M89.6,117.6h-8.4l-7-9.5h-5.9v9.5h-6.8V91.4h15.5c5.1,0,10.9,0.9,10.9,8.2c0,4.4-2.8,7-5.9,7.8L89.6,117.6z
				 M68.3,102.1h8.1c4.5,0,4.8-0.9,4.8-2.4c0-1.5-0.3-2.4-4.8-2.4h-8.1V102.1z"/>
		</g>
		<g>
			<path class="st0" d="M105,118.2c-11.4,0-15.4-7.3-15.4-13.5c0-8.7,5.8-13.9,15.4-13.9c9.6,0,15.4,5.2,15.4,13.9
				C120.4,110.9,116.3,118.2,105,118.2z M105,96.9c-2.6,0-8.6,0.7-8.6,7.5c0,6.7,5.4,7.7,8.6,7.7c3.2,0,8.6-1,8.6-7.7
				C113.6,97.7,107.6,96.9,105,96.9z"/>
		</g>
		<g>
			<path class="st0" d="M150.5,117.6h-5.8l-15.3-16.5v16.5h-6.6V91.4h6.5l14.7,15.8V91.4h6.6V117.6z"/>
		</g>
		<g>
			<path class="st0" d="M171,117.6h-6.8V97.5h-10.8v-6.1h28.4v6.1H171V117.6z"/>
		</g>
		<g>
			<path class="st0" d="M197,118.2c-11.4,0-15.4-7.3-15.4-13.5c0-8.7,5.8-13.9,15.4-13.9c9.6,0,15.4,5.2,15.4,13.9
				C212.4,110.9,208.4,118.2,197,118.2z M197,96.9c-2.6,0-8.6,0.7-8.6,7.5c0,6.7,5.4,7.7,8.6,7.7c3.2,0,8.6-1,8.6-7.7
				C205.7,97.7,199.6,96.9,197,96.9z"/>
		</g>
	</g>
	<g>
		<g>
			<path class="st0" d="M272.7,87.9c-11.4,0-15.4-7.3-15.4-13.5c0-8.7,5.8-13.9,15.4-13.9c9.6,0,15.4,5.2,15.4,13.9
				C288.1,80.7,284.1,87.9,272.7,87.9z M272.7,66.7c-2.6,0-8.6,0.7-8.6,7.5c0,6.7,5.4,7.7,8.6,7.7c3.2,0,8.6-1,8.6-7.7
				C281.3,67.4,275.3,66.7,272.7,66.7z"/>
		</g>
		<g>
			<path class="st0" d="M297.5,87.3h-6.8V61.1H315v6.1h-17.5v3.5h15v6.1h-15V87.3z"/>
		</g>
	</g>
	<g>
		<g>
			<path class="st1" d="M6.8,26.8H0V0.6h24.3v6.1H6.8v3.5h14.3v6.1H6.8V26.8z"/>
		</g>
		<g>
			<path class="st1" d="M51,26.8h-7.3l-2.5-5.5H28.6l-2.6,5.5h-7.3L31.6,0.6h6.7L51,26.8z M31.6,15.1h6.8L35,7.8L31.6,15.1z"/>
		</g>
		<g>
			<path class="st1" d="M64,27.4c-9.1,0-14.7-5.4-14.7-14.1C49.3,5,54.9,0,64.3,0C71.7,0,76.4,3.1,78,8.9l0.4,1.4h-6.8l-0.2-0.7
				c0,0-1.3-3.5-6.8-3.5c-7,0-8.4,4.2-8.4,7.7c0,5.5,4.2,7.4,8.2,7.4c5.2,0,7.1-3.1,7.4-4.4l0.2-0.8h6.7l-0.2,1.2
				C77.8,21.1,75.1,27.4,64,27.4z"/>
		</g>
		<g>
			<path class="st1" d="M95.5,27.4c-11.4,0-13.8-6.5-13.8-12V0.6h6.8v14.5c0,3.7,1.2,6.2,7.1,6.2c5.9,0,7.1-2.5,7.1-6.2V0.6h6.8
				v14.8C109.3,20.9,106.9,27.4,95.5,27.4z"/>
		</g>
		<g>
			<path class="st1" d="M137.3,26.8H113V0.6h6.8v20h17.5V26.8z"/>
		</g>
		<g>
			<path class="st1" d="M147.7,26.8h-6.8V6.7h-10.8V0.6h28.4v6.1h-10.8V26.8z"/>
		</g>
		<g>
			<path class="st1" d="M172.8,26.8H166V16.5L153.1,0.6h8.4l7.9,9.6l7.8-9.6h8.5l-12.9,15.9V26.8z"/>
		</g>
		<g>
			<path class="st1" d="M6.8,57.1H0V30.9h6.8V57.1z"/>
		</g>
		<g>
			<path class="st1" d="M38.5,57.1h-5.8L17.4,40.6v16.5h-6.6V30.9h6.5l14.7,15.8V30.9h6.6V57.1z"/>
		</g>
		<g>
			<path class="st1" d="M49.6,57.1h-6.8V30.9h24.3V37H49.6v3.5H64v6.1H49.6V57.1z"/>
		</g>
		<g>
			<path class="st1" d="M82.8,57.7c-11.4,0-15.4-7.3-15.4-13.5c0-8.7,5.8-13.9,15.4-13.9c9.6,0,15.4,5.2,15.4,13.9
				C98.2,50.4,94.1,57.7,82.8,57.7z M82.8,36.4c-2.6,0-8.6,0.7-8.6,7.5c0,6.7,5.4,7.7,8.6,7.7c3.2,0,8.6-1,8.6-7.7
				C91.4,37.1,85.4,36.4,82.8,36.4z"/>
		</g>
		<g>
			<path class="st1" d="M129.1,57.1h-8.4l-7-9.5h-5.9v9.5H101V30.9h15.5c5.1,0,10.9,0.9,10.9,8.2c0,4.4-2.8,7-5.9,7.8L129.1,57.1z
				 M107.8,41.6h8.1c4.5,0,4.8-0.9,4.8-2.4c0-1.5-0.3-2.4-4.8-2.4h-8.1V41.6z"/>
		</g>
		<g>
			<path class="st1" d="M161,57.1h-6.2V42.7l-6.1,14.4h-5.1l-6.1-14.4v14.4h-6.2V30.9h8.1l6.9,16.3l7-16.3h7.9V57.1z"/>
		</g>
		<g>
			<path class="st1" d="M193.6,57.1h-7.3l-2.5-5.5h-12.6l-2.6,5.5h-7.3l12.9-26.2h6.7L193.6,57.1z M174.1,45.4h6.8l-3.4-7.3
				L174.1,45.4z"/>
		</g>
		<g>
			<path class="st1" d="M204.3,57.1h-6.8V37h-10.8v-6.1h28.4V37h-10.8V57.1z"/>
		</g>
		<g>
			<path class="st1" d="M224.4,57.1h-6.8V30.9h6.8V57.1z"/>
		</g>
		<g>
			<path class="st1" d="M242.8,57.7c-11.4,0-15.4-7.3-15.4-13.5c0-8.7,5.8-13.9,15.4-13.9c9.6,0,15.4,5.2,15.4,13.9
				C258.2,50.4,254.2,57.7,242.8,57.7z M242.8,36.4c-2.6,0-8.6,0.7-8.6,7.5c0,6.7,5.4,7.7,8.6,7.7s8.6-1,8.6-7.7
				C251.4,37.1,245.4,36.4,242.8,36.4z"/>
		</g>
		<g>
			<path class="st1" d="M288.7,57.1h-5.8l-15.3-16.5v16.5H261V30.9h6.5l14.7,15.8V30.9h6.6V57.1z"/>
		</g>
		<g>
			<path class="st1" d="M206.8,27.4c-11.4,0-15.4-7.3-15.4-13.5c0-8.7,5.8-13.9,15.4-13.9s15.4,5.2,15.4,13.9
				C222.2,20.1,218.1,27.4,206.8,27.4z M206.8,6.1c-2.6,0-8.6,0.7-8.6,7.5c0,6.7,5.4,7.7,8.6,7.7c3.2,0,8.6-1,8.6-7.7
				C215.4,6.8,209.4,6.1,206.8,6.1z"/>
		</g>
		<g>
			<path class="st1" d="M231.6,26.8h-6.8V0.6h24.3v6.1h-17.5v3.5h15v6.1h-15V26.8z"/>
		</g>
	</g>
</g>
</svg>
