<?xml version="1.0" encoding="utf-8"?>
<!-- Generator: Adobe Illustrator 21.0.0, SVG Export Plug-In . SVG Version: 6.00 Build 0)  -->
<svg version="1.1" id="Layer_1" xmlns="http://www.w3.org/2000/svg" xmlns:xlink="http://www.w3.org/1999/xlink" x="0px" y="0px"
	 viewBox="0 0 100 100" style="enable-background:new 0 0 100 100;" xml:space="preserve">
<style type="text/css">
	.st0{fill:#294F9B;}
	.st1{fill:#FFFFFF;}
</style>
<g id="facebook">
	<path class="st0" d="M88.2,11.6c-5.8-5.8-11.6-5.8-21.7-5.8h-34c-10.1,0-15.9,0-21.7,5.8c-5.8,5.8-5.8,11.6-5.8,21.7v34
		c0,10.1,0,15.9,5.8,21.7c5.8,5.8,11.6,5.8,21.7,5.8h34c10.1,0,15.9,0,21.7-5.8c5.8-5.8,5.8-11.6,5.8-21.7v-34
		C94.1,23.2,94.1,17.4,88.2,11.6z"/>
	<path class="st1" d="M51.9,44.8v-3.3c0-1.2,0.8-1.5,1.4-1.5c0.6,0,3.5,0,3.5,0v-5.4l-4.9,0c-5.4,0-6.7,4.1-6.7,6.7v3.6h-3.1v5.6
		h3.1c0,7.2,0,15.9,0,15.9h6.6c0,0,0-8.8,0-15.9h4.4l0.6-5.6H51.9z"/>
</g>
</svg>
