<?xml version="1.0" encoding="utf-8"?>
<!-- Generator: Adobe Illustrator 21.0.0, SVG Export Plug-In . SVG Version: 6.00 Build 0)  -->
<svg version="1.1" id="Layer_1" xmlns="http://www.w3.org/2000/svg" xmlns:xlink="http://www.w3.org/1999/xlink" x="0px" y="0px"
	 viewBox="0 0 96.3 96.3" style="enable-background:new 0 0 96.3 96.3;" xml:space="preserve">
<style type="text/css">
	.st0{fill:#FFFFFF;}
</style>
<g id="XMLID_183_">
	<g id="XMLID_186_">
		<path id="XMLID_1459_" class="st0" d="M49.2,93.2h-3.3c-2.1,0-3.9-1.7-3.9-3.9h3.3c0,0.3,0.3,0.6,0.6,0.6h3.3
			c0.3,0,0.6-0.3,0.6-0.6h3.3C53.1,91.5,51.3,93.2,49.2,93.2z"/>
	</g>
	<g id="XMLID_292_">
		<path id="XMLID_1458_" class="st0" d="M57.2,88.1H37.5l-4.3-8.2v-25c-8-5-13-13.9-13-23.4c0-6.5,2.3-12.8,6.5-17.8l2.5,2.1
			c-3.7,4.4-5.7,9.9-5.7,15.6c0,8.6,4.7,16.7,12.2,21l0.8,0.5V79l3,5.7h15.9L59,79V52.9l0.8-0.5c7.5-4.3,12.2-12.4,12.2-21
			C72,18,61.1,7.1,47.7,7.1c-3.2,0-6.2,0.6-9.1,1.8l-1.2-3.1c3.3-1.3,6.8-2,10.4-2c15.2,0,27.6,12.4,27.6,27.6c0,9.5-5,18.4-13,23.4
			v25.1L57.2,88.1z"/>
	</g>
	<g id="XMLID_430_">
		<path id="XMLID_1457_" class="st0" d="M31.6,13.2l-2.4-2.3c1.6-1.7,2.5-2.1,4.2-3.1L34,7.5l1.7,2.9l-0.5,0.3
			C33.5,11.6,33,11.9,31.6,13.2z"/>
	</g>
	<g id="XMLID_429_">
		<rect id="XMLID_1456_" x="30.9" y="60.2" class="st0" width="33.7" height="3.3"/>
	</g>
	<g id="XMLID_291_">
		<rect id="XMLID_1455_" x="30.9" y="66" class="st0" width="33.7" height="3.3"/>
	</g>
	<g id="XMLID_290_">
		<rect id="XMLID_1454_" x="30.9" y="71.9" class="st0" width="33.7" height="3.3"/>
	</g>
	<g id="XMLID_426_">
		<rect id="XMLID_1453_" x="30.9" y="77.8" class="st0" width="33.7" height="3.3"/>
	</g>
	<g id="XMLID_302_">
		<path id="XMLID_1452_" class="st0" d="M54.4,60.4h-3.3V24.9l-3.4-7.4l-3.4,7.4v35.5H41V24.2l4.6-10c0.4-0.8,1.2-1.3,2.1-1.3h0
			c0.9,0,1.7,0.5,2.1,1.3l4.6,10V60.4z"/>
	</g>
	<g id="XMLID_298_">
		<rect id="XMLID_1451_" x="42.3" y="26.8" class="st0" width="10.5" height="3.3"/>
	</g>
	<g id="XMLID_597_">
		
			<rect id="XMLID_1450_" x="72.6" y="11.9" transform="matrix(0.8651 -0.5016 0.5016 0.8651 3.5016 40.2276)" class="st0" width="7.8" height="3.3"/>
	</g>
	<g id="XMLID_596_">
		
			<rect id="XMLID_1449_" x="76.9" y="23.5" transform="matrix(0.9844 -0.1758 0.1758 0.9844 -3.1645 14.6054)" class="st0" width="7.8" height="3.3"/>
	</g>
	<g id="XMLID_595_">
		
			<rect id="XMLID_1448_" x="79.3" y="33.6" transform="matrix(0.171 -0.9853 0.9853 0.171 30.1557 110.8327)" class="st0" width="3.3" height="7.8"/>
	</g>
	<g id="XMLID_594_">
		
			<rect id="XMLID_1447_" x="75.2" y="45.2" transform="matrix(0.4972 -0.8676 0.8676 0.4972 -3.9937 91.3542)" class="st0" width="3.3" height="7.8"/>
	</g>
	<g id="XMLID_310_">
		
			<rect id="XMLID_1446_" x="17.7" y="9.7" transform="matrix(0.5015 -0.8651 0.8651 0.5015 -2.1118 23.5429)" class="st0" width="3.3" height="7.8"/>
	</g>
	<g id="XMLID_309_">
		
			<rect id="XMLID_1445_" x="13.4" y="21.3" transform="matrix(0.1757 -0.9844 0.9844 0.1757 -12.3491 35.5743)" class="st0" width="3.3" height="7.8"/>
	</g>
	<g id="XMLID_308_">
		
			<rect id="XMLID_1444_" x="11.1" y="35.8" transform="matrix(0.9852 -0.1711 0.1711 0.9852 -6.1957 3.1147)" class="st0" width="7.8" height="3.3"/>
	</g>
	<g id="XMLID_307_">
		
			<rect id="XMLID_1443_" x="15.2" y="47.5" transform="matrix(0.8674 -0.4975 0.4975 0.8674 -21.9104 16.0081)" class="st0" width="7.8" height="3.3"/>
	</g>
</g>
</svg>
