<?xml version="1.0" encoding="utf-8"?>
<!-- Generator: Adobe Illustrator 21.0.0, SVG Export Plug-In . SVG Version: 6.00 Build 0)  -->
<svg version="1.1" id="Layer_1" xmlns="http://www.w3.org/2000/svg" xmlns:xlink="http://www.w3.org/1999/xlink" x="0px" y="0px"
	 viewBox="0 0 96.3 96.3" style="enable-background:new 0 0 96.3 96.3;" xml:space="preserve">
<style type="text/css">
	.st0{fill:#FFFFFF;}
</style>
<g id="XMLID_341_">
	<g id="XMLID_345_">
		
			<rect id="XMLID_1418_" x="14.8" y="9.3" transform="matrix(0.8297 -0.5581 0.5581 0.8297 -15.369 14.6743)" class="st0" width="3.2" height="46.5"/>
	</g>
	<g id="XMLID_327_">
		
			<rect id="XMLID_1417_" x="35.6" y="10.6" transform="matrix(0.8371 -0.547 0.547 0.8371 -8.6263 24.7496)" class="st0" width="3.2" height="32.6"/>
	</g>
	<g id="XMLID_326_">
		
			<rect id="XMLID_1416_" x="59.3" y="29.9" transform="matrix(0.5625 -0.8268 0.8268 0.5625 9.5447 81.1256)" class="st0" width="44.3" height="3.2"/>
	</g>
	<g id="XMLID_343_">
		
			<rect id="XMLID_1415_" x="44.4" y="25.3" transform="matrix(0.5275 -0.8495 0.8495 0.5275 5.7566 64.0704)" class="st0" width="32.1" height="3.2"/>
	</g>
	<g id="XMLID_346_">
		<path id="XMLID_1414_" class="st0" d="M36.8,87.4c-3-1.7-5.5-4-7.6-6.7l2.5-1.9c1.8,2.4,4.1,4.4,6.6,5.9L36.8,87.4z"/>
	</g>
	<g id="XMLID_320_">
		<path id="XMLID_1413_" class="st0" d="M49.9,90.9c-2.1,0-4.3-0.3-6.3-0.8l0.8-3.1c1.8,0.4,3.7,0.7,5.5,0.7
			c12.6,0,22.8-10.2,22.8-22.8c0-12.6-10.2-22.8-22.8-22.8c-12.6,0-22.8,10.2-22.8,22.8c0,3.3,0.7,6.4,2,9.3l-2.9,1.3
			c-1.5-3.4-2.3-6.9-2.3-10.7c0-14.3,11.6-26,26-26c14.3,0,26,11.7,26,26C75.8,79.3,64.2,90.9,49.9,90.9z"/>
	</g>
	<g id="XMLID_715_">
		<path id="XMLID_1410_" class="st0" d="M44.8,75.6c-0.4,0-0.8-0.1-1.1-0.4c-0.6-0.4-0.9-1.2-0.8-1.9l0.8-5.2l-3.8-3.6
			c-0.5-0.5-0.7-1.3-0.5-2c0.2-0.7,0.8-1.2,1.6-1.3l5.2-0.8l2.3-4.8c0.3-0.7,1-1.1,1.7-1.1c0.8,0,1.4,0.4,1.8,1.1l2.4,4.7l5.2,0.7
			c0.7,0.1,1.4,0.6,1.6,1.3c0.2,0.7,0.1,1.5-0.5,2L57,67.9l1,5.2c0.1,0.7-0.1,1.5-0.7,1.9c-0.6,0.4-1.4,0.5-2.1,0.2l-4.7-2.4
			l-4.7,2.5C45.5,75.5,45.1,75.6,44.8,75.6z M43.9,63.9l2.5,2.4c0.5,0.4,0.7,1.1,0.6,1.7l-0.5,3.4l3-1.6c0.6-0.3,1.3-0.3,1.8,0
			l3,1.5l-0.6-3.4c-0.1-0.6,0.1-1.3,0.6-1.8l2.4-2.4l-3.4-0.4c-0.6-0.1-1.2-0.5-1.5-1l-1.6-3.1l-1.5,3.1c-0.3,0.6-0.8,1-1.4,1.1
			L43.9,63.9z"/>
	</g>
</g>
</svg>
