<?xml version="1.0" encoding="utf-8"?>
<!-- Generator: Adobe Illustrator 21.0.0, SVG Export Plug-In . SVG Version: 6.00 Build 0)  -->
<svg version="1.1" id="Layer_1" xmlns="http://www.w3.org/2000/svg" xmlns:xlink="http://www.w3.org/1999/xlink" x="0px" y="0px"
	 viewBox="0 0 96.3 96.3" style="enable-background:new 0 0 96.3 96.3;" xml:space="preserve">
<style type="text/css">
	.st0{fill:#FFFFFF;}
</style>
<g id="XMLID_799_">
	<g id="XMLID_634_">
		<path id="XMLID_1206_" class="st0" d="M1.7,83.8V13.3c0-3.3,2.7-6.1,6.1-6.1h1.9v3.3H7.7c-1.5,0-2.7,1.2-2.7,2.7v61.9
			c1.4-1.2,3.1-1.9,4.9-1.9H55v3.3H9.9c-1.2,0-2.3,0.5-3.1,1.4L1.7,83.8z"/>
	</g>
	<g id="XMLID_672_">
		<rect id="XMLID_1205_" x="13.3" y="7.2" class="st0" width="8" height="3.3"/>
	</g>
	<g id="XMLID_671_">
		<path id="XMLID_1204_" class="st0" d="M72.8,21.8h-3.3v-8.7c0-1.4-1.2-2.6-2.6-2.6H26V7.2h40.9c3.3,0,5.9,2.7,5.9,5.9V21.8z"/>
	</g>
	<g id="XMLID_767_">
		<path id="XMLID_1203_" class="st0" d="M60.2,90.6H10c-4.7,0-8.4-2.7-8.4-6.1v-5.4c0-3.4,3.7-6.1,8.4-6.1h45.4v3.3H10
			c-2.9,0-5,1.5-5,2.8v5.4c0,1.3,2.1,2.8,5,2.8h50.2V90.6z"/>
	</g>
	<g id="XMLID_764_">
		<path id="XMLID_1200_" class="st0" d="M28.5,86.4l-6.3-3l-6.3,3V73.1h12.7V86.4z M22.2,79.7l3,1.4v-4.7h-6v4.7L22.2,79.7z"/>
	</g>
	<g id="XMLID_763_">
		<rect id="XMLID_1199_" x="15.7" y="29.5" class="st0" width="31.2" height="3.3"/>
	</g>
	<g id="XMLID_761_">
		<rect id="XMLID_1198_" x="15.7" y="36.9" class="st0" width="27.1" height="3.3"/>
	</g>
	<g id="XMLID_760_">
		<rect id="XMLID_1194_" x="29.2" y="44.3" class="st0" width="12.5" height="3.3"/>
	</g>
	<g id="XMLID_782_">
		<rect id="XMLID_6_" x="66.8" y="73.2" class="st0" width="3.3" height="7.2"/>
	</g>
	<g id="XMLID_558_">
		<path id="XMLID_1195_" class="st0" d="M68.5,76.1c-14.2,0-25.8-11.6-25.8-25.8s11.6-25.8,25.8-25.8S94.3,36,94.3,50.3
			S82.7,76.1,68.5,76.1z M68.5,27.8C56.1,27.8,46,37.9,46,50.3s10.1,22.5,22.5,22.5S91,62.7,91,50.3S80.9,27.8,68.5,27.8z"/>
	</g>
	<g id="XMLID_773_">
		<polygon id="XMLID_1193_" class="st0" points="74.9,90.7 71.6,90.7 71.6,81.9 65.4,81.9 65.4,90.7 62,90.7 62,78.6 74.9,78.6 		
			"/>
	</g>
	<g id="XMLID_772_">
		<rect id="XMLID_1192_" x="63.5" y="85.5" class="st0" width="10" height="3.3"/>
	</g>
</g>
</svg>
