<?xml version="1.0" encoding="utf-8"?>
<!-- Generator: Adobe Illustrator 21.0.0, SVG Export Plug-In . SVG Version: 6.00 Build 0)  -->
<svg version="1.1" id="Layer_1" xmlns="http://www.w3.org/2000/svg" xmlns:xlink="http://www.w3.org/1999/xlink" x="0px" y="0px"
	 viewBox="0 0 96.3 96.3" style="enable-background:new 0 0 96.3 96.3;" xml:space="preserve">
<style type="text/css">
	.st0{fill:#FFFFFF;}
</style>
<g>
	<g>
		<g>
			<path class="st0" d="M48.2,92.1"/>
		</g>
		<g>
			<g>
				<path class="st0" d="M40.4,57.8h-3.1V35.9c0-4.3-3.5-7.8-7.8-7.8H13.9c-4.3,0-7.8,3.5-7.8,7.8v21.8H3V35.9
					C3,29.9,7.9,25,13.9,25h15.6c6,0,10.9,4.9,10.9,10.9V57.8z"/>
			</g>
			<g>
				<rect x="20.2" y="59.3" class="st0" width="3.1" height="29.6"/>
			</g>
			<g>
				<rect x="10.8" y="37.5" class="st0" width="3.1" height="51.5"/>
			</g>
			<g>
				<rect x="29.5" y="37.5" class="st0" width="3.1" height="51.5"/>
			</g>
			<g>
				<path class="st0" d="M23.3,21.9h-3.1c-4.3,0-7.8-3.5-7.8-7.8V9.4c0-4.3,3.5-7.8,7.8-7.8h3.1c4.3,0,7.8,3.5,7.8,7.8v4.7
					C31.1,18.4,27.6,21.9,23.3,21.9z M20.2,4.8c-2.6,0-4.7,2.1-4.7,4.7v4.7c0,2.6,2.1,4.7,4.7,4.7h3.1c2.6,0,4.7-2.1,4.7-4.7V9.4
					c0-2.6-2.1-4.7-4.7-4.7H20.2z"/>
			</g>
			<g>
				<rect x="17" y="57.8" class="st0" width="9.4" height="3.1"/>
			</g>
			<g>
				<path class="st0" d="M66.9,57.8h-3.1V35.9c0-4.3-3.5-7.8-7.8-7.8H40.4V25H56c6,0,10.9,4.9,10.9,10.9V57.8z"/>
			</g>
			<g>
				<rect x="46.7" y="59.3" class="st0" width="3.1" height="29.6"/>
			</g>
			<g>
				<rect x="37.3" y="37.5" class="st0" width="3.1" height="51.5"/>
			</g>
			<g>
				<rect x="56" y="37.5" class="st0" width="3.1" height="51.5"/>
			</g>
			<g>
				<path class="st0" d="M49.8,21.9h-3.1c-4.3,0-7.8-3.5-7.8-7.8V9.4c0-4.3,3.5-7.8,7.8-7.8h3.1c4.3,0,7.8,3.5,7.8,7.8v4.7
					C57.6,18.4,54.1,21.9,49.8,21.9z M46.7,4.8c-2.6,0-4.7,2.1-4.7,4.7v4.7c0,2.6,2.1,4.7,4.7,4.7h3.1c2.6,0,4.7-2.1,4.7-4.7V9.4
					c0-2.6-2.1-4.7-4.7-4.7H46.7z"/>
			</g>
			<g>
				<rect x="43.5" y="57.8" class="st0" width="9.4" height="3.1"/>
			</g>
			<g>
				<path class="st0" d="M93.4,57.8h-3.1V35.9c0-4.3-3.5-7.8-7.8-7.8H66.9V25h15.6c6,0,10.9,4.9,10.9,10.9V57.8z"/>
			</g>
			<g>
				<rect x="73.2" y="59.3" class="st0" width="3.1" height="29.6"/>
			</g>
			<g>
				<rect x="63.8" y="37.5" class="st0" width="3.1" height="51.5"/>
			</g>
			<g>
				<rect x="82.5" y="37.5" class="st0" width="3.1" height="51.5"/>
			</g>
			<g>
				<path class="st0" d="M76.3,21.9h-3.1c-4.3,0-7.8-3.5-7.8-7.8V9.4c0-4.3,3.5-7.8,7.8-7.8h3.1c4.3,0,7.8,3.5,7.8,7.8v4.7
					C84.1,18.4,80.6,21.9,76.3,21.9z M73.2,4.8c-2.6,0-4.7,2.1-4.7,4.7v4.7c0,2.6,2.1,4.7,4.7,4.7h3.1c2.6,0,4.7-2.1,4.7-4.7V9.4
					c0-2.6-2.1-4.7-4.7-4.7H73.2z"/>
			</g>
			<g>
				<rect x="70.1" y="57.8" class="st0" width="9.4" height="3.1"/>
			</g>
		</g>
		<g>
			<rect x="3" y="92.1" class="st0" width="3.1" height="3.1"/>
		</g>
		<g>
			<rect x="9.2" y="92.1" class="st0" width="3.1" height="3.1"/>
		</g>
		<g>
			<rect x="15.5" y="92.1" class="st0" width="3.1" height="3.1"/>
		</g>
		<g>
			<rect x="21.7" y="92.1" class="st0" width="3.1" height="3.1"/>
		</g>
		<g>
			<rect x="28" y="92.1" class="st0" width="3.1" height="3.1"/>
		</g>
		<g>
			<rect x="34.2" y="92.1" class="st0" width="3.1" height="3.1"/>
		</g>
		<g>
			<rect x="40.4" y="92.1" class="st0" width="3.1" height="3.1"/>
		</g>
		<g>
			<rect x="46.7" y="92.1" class="st0" width="3.1" height="3.1"/>
		</g>
		<g>
			<rect x="52.9" y="92.1" class="st0" width="3.1" height="3.1"/>
		</g>
		<g>
			<rect x="59.1" y="92.1" class="st0" width="3.1" height="3.1"/>
		</g>
		<g>
			<rect x="65.4" y="92.1" class="st0" width="3.1" height="3.1"/>
		</g>
		<g>
			<rect x="71.6" y="92.1" class="st0" width="3.1" height="3.1"/>
		</g>
		<g>
			<rect x="77.9" y="92.1" class="st0" width="3.1" height="3.1"/>
		</g>
		<g>
			<rect x="84.1" y="92.1" class="st0" width="3.1" height="3.1"/>
		</g>
		<g>
			<rect x="90.3" y="92.1" class="st0" width="3.1" height="3.1"/>
		</g>
	</g>
</g>
</svg>
