<?xml version="1.0" encoding="utf-8"?>
<!-- Generator: Adobe Illustrator 21.0.0, SVG Export Plug-In . SVG Version: 6.00 Build 0)  -->
<svg version="1.1" id="Layer_1" xmlns="http://www.w3.org/2000/svg" xmlns:xlink="http://www.w3.org/1999/xlink" x="0px" y="0px"
	 viewBox="0 0 96.3 96.3" style="enable-background:new 0 0 96.3 96.3;" xml:space="preserve">
<style type="text/css">
	.st0{fill:#FFFFFF;}
</style>
<g id="XMLID_236_">
	<g id="XMLID_179_">
		<path id="XMLID_1575_" class="st0" d="M48.3,82.5c-5.1,0-10-1-14.7-3c-4.5-1.9-8.5-4.6-12-8.1c-3.5-3.5-6.2-7.5-8.1-12
			c-2-4.6-3-9.6-3-14.7c0-5.1,1-10,3-14.7c1.1-2.5,2.4-4.9,4-7.1l2.5,1.8c-1.5,2-2.7,4.3-3.7,6.6c-1.8,4.3-2.7,8.8-2.7,13.5
			c0,4.7,0.9,9.2,2.7,13.5c1.7,4.1,4.2,7.8,7.4,11c3.2,3.2,6.9,5.7,11,7.4c8.5,3.6,18.4,3.6,27,0c4.1-1.7,7.8-4.2,11-7.4
			c3.2-3.2,5.7-6.9,7.4-11c1.8-4.3,2.7-8.8,2.7-13.5c0-4.7-0.9-9.2-2.7-13.5c-0.9-2.1-1.9-4-3.2-5.9l2.5-1.7c1.4,2,2.5,4.2,3.5,6.4
			c2,4.6,3,9.6,3,14.7c0,5.1-1,10-3,14.7c-1.9,4.5-4.6,8.5-8.1,12c-3.5,3.5-7.5,6.2-12,8.1C58.4,81.5,53.4,82.5,48.3,82.5z"/>
	</g>
	<g id="XMLID_169_">
		<path id="XMLID_1572_" class="st0" d="M54.2,82.1c0,0-0.1,0-0.1,0l-0.8,0l-0.4-0.7c-0.3-0.5-2.9-5-1-8.2c1.8-3.2,7.1-3.2,7.6-3.2
			l0.8,0l0.4,0.7c0.3,0.5,2.9,5,1,8.2C60,81.9,55.2,82.1,54.2,82.1z M58.5,73c-1.4,0.1-3.5,0.6-4.1,1.6c-0.6,1.1,0,3,0.6,4.4
			c1.4-0.1,3.5-0.6,4.1-1.6C59.7,76.3,59.1,74.3,58.5,73z"/>
	</g>
	<g id="XMLID_171_">
		<path id="XMLID_1569_" class="st0" d="M62.1,88.5c-0.4,0-0.7,0-1.1-0.1c-4.3-0.8-6.6-6-6.7-6.2l-0.4-1l0.7-0.7
			c0.2-0.2,4.2-4.2,8.5-3.4c4.3,0.8,6.6,6,6.7,6.2l0.4,1l-0.7,0.7C69.3,85.2,66,88.5,62.1,88.5z M57.6,82c0.8,1.3,2.3,3.2,4,3.5
			c1.7,0.3,3.7-0.9,5-1.8c-0.8-1.3-2.3-3.2-4-3.5C60.7,79.8,58.7,81.1,57.6,82z"/>
	</g>
	<g id="XMLID_172_">
		<path id="XMLID_1566_" class="st0" d="M70.6,74.8l-0.7-0.4c-0.5-0.3-5-2.9-5-6.6c0-3.7,4.5-6.3,5-6.6l0.7-0.4l0.7,0.4
			c0.5,0.3,5,2.9,5,6.6c0,3.7-4.5,6.3-5,6.6L70.6,74.8z M70.6,64.3c-1.2,0.8-2.7,2.2-2.7,3.5c0,1.2,1.5,2.6,2.7,3.5
			c1.2-0.8,2.7-2.2,2.7-3.5C73.3,66.5,71.7,65.1,70.6,64.3z"/>
	</g>
	<g id="XMLID_170_">
		<path id="XMLID_1563_" class="st0" d="M78.9,76.6c-3.4,0-6.5-2.3-6.7-2.4l-0.8-0.6l0.3-1c0.1-0.2,1.6-5.7,5.6-7.2
			c4.1-1.4,8.7,1.9,8.9,2l0.8,0.6l-0.3,1c-0.1,0.2-1.6,5.7-5.6,7.2C80.4,76.5,79.6,76.6,78.9,76.6z M74.9,72.4
			c1.4,0.7,3.5,1.6,5.2,1c1.7-0.6,2.8-2.8,3.4-4.1c-1.3-0.7-3.5-1.6-5.2-1C76.6,68.9,75.5,71,74.9,72.4z"/>
	</g>
	<g id="XMLID_174_">
		<path id="XMLID_1560_" class="st0" d="M81,60.5c-0.9,0-5.8-0.1-7.5-3.2c-1.8-3.2,0.7-7.7,1-8.2l0.4-0.7l0.8,0c0.6,0,5.8,0,7.6,3.2
			c1.8,3.2-0.7,7.7-1,8.2l-0.4,0.7L81,60.5C81,60.5,81,60.5,81,60.5z M76.7,51.4c-0.6,1.3-1.2,3.3-0.6,4.3c0.6,1.1,2.6,1.5,4.1,1.7
			c0.6-1.3,1.2-3.3,0.6-4.3C80.1,52,78.1,51.5,76.7,51.4z"/>
	</g>
	<g id="XMLID_173_">
		<path id="XMLID_1557_" class="st0" d="M84.9,58.5c-0.7,0-1.1,0-1.2,0l-1-0.1l-0.3-1c-0.1-0.2-1.5-5.7,1.3-9
			c2.8-3.3,8.5-2.7,8.7-2.7l1,0.1l0.3,1c0.1,0.2,1.5,5.7-1.3,9C90.4,58.1,86.7,58.5,84.9,58.5z M91,48.5c-1.5,0-3.9,0.4-5,1.7
			c-1.1,1.3-1.1,3.7-0.9,5.2c1.5,0,3.9-0.4,5-1.7C91.3,52.4,91.2,50.1,91,48.5z"/>
	</g>
	<g id="XMLID_176_">
		<path id="XMLID_1554_" class="st0" d="M78,44c-0.9,0-1.8-0.2-2.7-0.7c-3.2-1.9-3.2-7-3.2-7.6l0-0.8l0.7-0.4c0.5-0.3,5-2.9,8.2-1
			c3.2,1.9,3.2,7,3.2,7.6l0,0.8l-0.7,0.4C83.2,42.5,80.6,44,78,44z M75.2,36.6c0.1,1.4,0.6,3.5,1.6,4.1c1.1,0.6,3,0,4.3-0.6
			c-0.1-1.4-0.6-3.5-1.6-4.1C78.5,35.4,76.5,36,75.2,36.6z"/>
	</g>
	<g id="XMLID_175_">
		<path id="XMLID_1551_" class="st0" d="M84.8,39.4l-0.7-0.7c-0.2-0.2-4.2-4.2-3.4-8.5c0.8-4.3,6-6.6,6.2-6.7l1-0.4l0.7,0.7
			c0.2,0.2,4.2,4.2,3.4,8.5c-0.8,4.2-6,6.6-6.2,6.7L84.8,39.4z M87.2,26.7c-1.3,0.8-3.2,2.3-3.5,4c-0.3,1.7,0.9,3.7,1.8,5
			c1.3-0.8,3.2-2.3,3.5-4C89.3,29.9,88.1,27.9,87.2,26.7z"/>
	</g>
	<g id="XMLID_177_">
		<path id="XMLID_1548_" class="st0" d="M79.9,28l-1-0.3c-0.2-0.1-5.7-1.6-7.2-5.7c-1.4-4.1,1.9-8.7,2-8.9l0.6-0.8l1,0.3
			c0.2,0.1,5.7,1.6,7.2,5.7c1.4,4.1-1.9,8.7-2,8.9L79.9,28z M75.6,15.8c-0.7,1.4-1.6,3.5-1,5.2c0.6,1.7,2.6,2.8,4.1,3.4
			c0.7-1.4,1.6-3.5,1-5.2C79.1,17.6,77,16.4,75.6,15.8z"/>
	</g>
	<g id="XMLID_207_">
		<path id="XMLID_1545_" class="st0" d="M42.5,82.1c-0.9,0-5.7-0.2-7.5-3.2c-1.8-3.2,0.7-7.7,1-8.2l0.4-0.7l0.8,0
			c0.6,0,5.8,0,7.6,3.2c1.8,3.2-0.7,7.7-1,8.2l-0.4,0.7l-0.8,0C42.6,82.1,42.5,82.1,42.5,82.1z M38.2,73c-0.6,1.3-1.2,3.3-0.6,4.4
			c0.6,1.1,2.6,1.5,4.1,1.6c0.6-1.3,1.2-3.3,0.6-4.3C41.6,73.6,39.6,73.1,38.2,73z"/>
	</g>
	<g id="XMLID_206_">
		<path id="XMLID_1542_" class="st0" d="M34.5,88.5c-3.8,0-7.2-3.3-7.4-3.5l-0.7-0.7l0.4-1c0.1-0.2,2.5-5.4,6.7-6.2
			c4.3-0.8,8.3,3.2,8.5,3.4l0.7,0.7l-0.4,1c-0.1,0.2-2.5,5.4-6.7,6.2C35.3,88.5,34.9,88.5,34.5,88.5z M30.2,83.6
			c1.2,1,3.2,2.1,4.9,1.8c1.7-0.3,3.2-2.2,4-3.5c-1.2-1-3.2-2.1-5-1.8C32.3,80.5,30.9,82.4,30.2,83.6z"/>
	</g>
	<g id="XMLID_205_">
		<path id="XMLID_1539_" class="st0" d="M26.1,74.8l-0.7-0.4c-0.5-0.3-5-2.9-5-6.6c0-3.7,4.5-6.3,5-6.6l0.7-0.4l0.7,0.4
			c0.5,0.3,5,2.9,5,6.6c0,3.7-4.5,6.3-5,6.6L26.1,74.8z M26.1,64.3c-1.2,0.8-2.7,2.2-2.7,3.5c0,1.2,1.5,2.6,2.7,3.5
			c1.2-0.8,2.7-2.2,2.7-3.5C28.8,66.5,27.3,65.1,26.1,64.3z"/>
	</g>
	<g id="XMLID_204_">
		<path id="XMLID_1536_" class="st0" d="M17.8,76.6c-0.7,0-1.5-0.1-2.2-0.4c-4.1-1.4-5.6-6.9-5.6-7.2l-0.3-1l0.8-0.6
			c0.2-0.1,4.8-3.4,8.9-2c4.1,1.4,5.6,6.9,5.6,7.2l0.3,1l-0.8,0.6C24.3,74.4,21.1,76.6,17.8,76.6z M13.2,69.4
			c0.6,1.4,1.7,3.5,3.4,4.1c1.7,0.6,3.9-0.3,5.2-1c-0.6-1.4-1.7-3.5-3.4-4.1C16.6,67.7,14.4,68.7,13.2,69.4z"/>
	</g>
	<g id="XMLID_203_">
		<path id="XMLID_1533_" class="st0" d="M15.7,60.5C15.7,60.5,15.6,60.5,15.7,60.5l-0.9,0l-0.4-0.7c-0.3-0.5-2.9-5-1-8.2
			c1.8-3.2,7-3.2,7.6-3.2l0.8,0l0.4,0.7c0.3,0.5,2.9,5,1,8.2C21.5,60.3,16.6,60.5,15.7,60.5z M20,51.4c-1.4,0.1-3.5,0.6-4.1,1.7
			c-0.6,1.1,0,3,0.6,4.3c1.4-0.1,3.5-0.6,4.1-1.7C21.2,54.6,20.6,52.7,20,51.4z"/>
	</g>
	<g id="XMLID_202_">
		<path id="XMLID_1530_" class="st0" d="M11.8,58.5c-1.9,0-5.5-0.3-7.6-2.8c-2.8-3.3-1.4-8.8-1.3-9l0.3-1l1-0.1
			c0.2,0,5.9-0.6,8.7,2.7c2.8,3.3,1.4,8.8,1.3,9l-0.3,1l-1,0.1C12.9,58.4,12.4,58.5,11.8,58.5z M5.6,48.5c-0.2,1.5-0.2,3.9,0.9,5.2
			c1.1,1.3,3.5,1.7,5,1.7c0.2-1.5,0.2-3.9-0.9-5.2C9.5,48.9,7.2,48.6,5.6,48.5z"/>
	</g>
	<g id="XMLID_201_">
		<path id="XMLID_1527_" class="st0" d="M18.6,44c-2.6,0-5.2-1.5-5.5-1.7l-0.7-0.4l0-0.8c0-0.6,0-5.8,3.2-7.6c3.2-1.8,7.7,0.7,8.2,1
			l0.7,0.4l0,0.8c0,0.6,0,5.8-3.2,7.6C20.5,43.8,19.6,44,18.6,44z M15.5,40.1c1.3,0.6,3.3,1.2,4.4,0.6c1.1-0.6,1.5-2.6,1.6-4.1
			c-1.3-0.6-3.3-1.2-4.4-0.6C16,36.6,15.6,38.6,15.5,40.1z"/>
	</g>
	<g id="XMLID_200_">
		<path id="XMLID_1524_" class="st0" d="M11.8,39.4l-1-0.4c-0.2-0.1-5.4-2.5-6.2-6.7c-0.8-4.3,3.2-8.3,3.4-8.5L8.8,23l1,0.4
			c0.2,0.1,5.4,2.5,6.2,6.7c0.8,4.2-3.2,8.3-3.4,8.5L11.8,39.4z M9.5,26.7c-0.9,1.2-2.1,3.2-1.8,4.9c0.3,1.8,2.3,3.2,3.5,4
			c0.9-1.2,2.1-3.2,1.8-4.9C12.6,28.9,10.7,27.4,9.5,26.7z"/>
	</g>
	<g id="XMLID_198_">
		<path id="XMLID_1521_" class="st0" d="M18.2,25.5l-0.6-0.8c-0.1-0.2-3.5-4.8-2-8.9c1.4-4.1,6.9-5.6,7.2-5.7l1-0.3l0.6,0.8
			c0.1,0.2,3.5,4.8,2,8.9c-1.4,4.1-6.9,5.6-7.2,5.7L18.2,25.5z M22.5,13.4c-1.4,0.6-3.5,1.7-4.1,3.4c-0.6,1.7,0.4,3.9,1,5.2
			c1.4-0.6,3.5-1.7,4.1-3.4C24.1,16.8,23.2,14.6,22.5,13.4z"/>
	</g>
	<g id="XMLID_194_">
		<rect id="XMLID_1520_" x="39.8" y="32.7" class="st0" width="3" height="24.2"/>
	</g>
	<g id="XMLID_185_">
		<rect id="XMLID_1519_" x="47.1" y="32.7" class="st0" width="3" height="24.2"/>
	</g>
	<g id="XMLID_222_">
		<rect id="XMLID_1518_" x="54.4" y="32.7" class="st0" width="3" height="24.2"/>
	</g>
	<g id="XMLID_235_">
		<polygon id="XMLID_1517_" class="st0" points="64.5,59.4 32.1,59.4 32.1,32.7 35.1,32.7 35.1,56.3 61.5,56.3 61.5,32.7 64.5,32.7 
					"/>
	</g>
	<g id="XMLID_233_">
		<polygon id="XMLID_1516_" class="st0" points="67.9,34.6 48.3,19.2 28.7,34.4 26.9,32 48.3,15.3 69.8,32.2 		"/>
	</g>
	<g id="XMLID_223_">
		<path id="XMLID_1513_" class="st0" d="M48.6,29.5c-2,0-3.7-1.6-3.7-3.7c0-2,1.6-3.7,3.7-3.7s3.7,1.6,3.7,3.7
			C52.3,27.8,50.6,29.5,48.6,29.5z M48.6,25.2c-0.3,0-0.6,0.3-0.6,0.6c0,0.3,0.3,0.6,0.6,0.6c0.3,0,0.6-0.3,0.6-0.6
			C49.2,25.5,48.9,25.2,48.6,25.2z"/>
	</g>
	<g id="XMLID_232_">
		<rect id="XMLID_1512_" x="27.8" y="56.3" class="st0" width="41.1" height="3"/>
	</g>
	<g id="XMLID_231_">
		<rect id="XMLID_1511_" x="41.4" y="61" class="st0" width="14" height="3"/>
	</g>
	<g id="XMLID_632_">
		<rect id="XMLID_1510_" x="28.8" y="57.9" class="st0" width="3" height="4.6"/>
	</g>
	<g id="XMLID_631_">
		<rect id="XMLID_1509_" x="64" y="57.9" class="st0" width="3" height="4.6"/>
	</g>
</g>
</svg>
