<?xml version="1.0" encoding="utf-8"?>
<!-- Generator: Adobe Illustrator 21.0.0, SVG Export Plug-In . SVG Version: 6.00 Build 0)  -->
<svg version="1.1" id="Layer_1" xmlns="http://www.w3.org/2000/svg" xmlns:xlink="http://www.w3.org/1999/xlink" x="0px" y="0px"
	 viewBox="0 0 96.3 96.3" style="enable-background:new 0 0 96.3 96.3;" xml:space="preserve">
<style type="text/css">
	.st0{fill:#FFFFFF;}
</style>
<g id="XMLID_342_">
	<g id="XMLID_301_">
		<path id="XMLID_1440_" class="st0" d="M42,91.7l-1.9-0.5l-0.3-1.2l2.7-16.7l15.3-1.1l0.5,1c0.3,0.6,0.2,1.3-0.3,1.8L42,91.7z
			 M45.2,76.1l-1.6,9.7l9.9-10.3L45.2,76.1z"/>
	</g>
	<g id="XMLID_229_">
		<path id="XMLID_1437_" class="st0" d="M56.6,56c-0.1,0-0.2,0-0.3,0l-20.2-4l1.3-18.8l0.2-0.9l1.8-0.5l0.7,0.7L57.9,53
			c0.5,0.6,0.6,1.4,0.2,2.1C57.8,55.6,57.2,56,56.6,56z M39.3,49.6l14.1,2.8L40.1,37.1L39.3,49.6z"/>
	</g>
	<g id="XMLID_228_">
		<path id="XMLID_1434_" class="st0" d="M36.7,87.1L17.9,68.9l18.6-36.6c0.5-0.9,1.4-1.3,2.4-1.1c1,0.3,1.6,1.2,1.5,2.2L36.7,87.1z
			 M21.6,68.3l12.6,12.1l2.9-42.7L21.6,68.3z"/>
	</g>
	<g id="XMLID_318_">
		<path id="XMLID_1431_" class="st0" d="M65.9,51l-0.7-0.7l0,0L53.9,38.6l0.9-2l1.1,0l9.8,0.7L68,49.2l-0.2,1.2L65.9,51z M59.4,39.9
			l4.7,4.9l-0.9-4.6L59.4,39.9z"/>
	</g>
	<g id="XMLID_316_">
		<path id="XMLID_1428_" class="st0" d="M56.1,26.5c-0.6,0-1.2-0.3-1.5-0.9c-0.3-0.6-0.3-1.4,0.2-1.9L67.5,9l1.8,0.4l0.3,1.2
			l0.9,13.6l-14.2,2.3C56.3,26.5,56.2,26.5,56.1,26.5z M66.9,14.3L59.4,23l8-1.3L66.9,14.3z"/>
	</g>
	<g id="XMLID_314_">
		<path id="XMLID_1425_" class="st0" d="M82.6,23.3L82,22.8c-0.3-0.3-0.5-0.8-0.5-1.2V12c0-0.7,0.4-1.3,1.1-1.6
			c0.6-0.3,1.4-0.1,1.9,0.4l8.8,9.1c0.5,0.5,0.6,1.2,0.4,1.8c-0.2,0.6-0.8,1-1.5,1.1L82.6,23.3z M84.4,15.2v5L89,20L84.4,15.2z"/>
	</g>
	<g id="XMLID_306_">
		<path id="XMLID_1422_" class="st0" d="M69.2,48.4l-2.6-37.7c-0.1-0.9,0.5-1.7,1.4-2c0.9-0.2,1.8,0.2,2.2,1L83.1,35L69.2,48.4z
			 M70,15.9l1.8,25.8l7.6-7.3L70,15.9z"/>
	</g>
	<g id="XMLID_180_">
		<path id="XMLID_1421_" class="st0" d="M16.9,51.2L4,50.5c-0.7,0-1.3-0.5-1.6-1.1c-0.3-0.6-0.1-1.4,0.4-1.9l13.3-13l2.1,2.2
			l-11.3,11L17,48.2L16.9,51.2z"/>
	</g>
	<g id="XMLID_157_">
		<path id="XMLID_1420_" class="st0" d="M41.6,91.7c-0.3,0-0.7-0.1-1-0.3l-0.2-0.2l-24-23.2c-0.4-0.3-0.6-0.8-0.6-1.3l-0.5-30.9
			c0-0.7,0.4-1.3,1-1.6c0.6-0.3,1.4-0.2,1.9,0.3l0.2,0.2L29.9,50l-2.4,1.8l-9.2-12.3l0.4,26.6l21.9,21.2l2-15.2l-7-9.4l2.4-1.8
			l7.2,9.6c0.3,0.3,0.4,0.7,0.4,1.2l-2.4,18.3c0,0.5-0.3,1.1-0.9,1.4C42.1,91.6,41.9,91.7,41.6,91.7z"/>
	</g>
	<g id="XMLID_182_">
		<path id="XMLID_1419_" class="st0" d="M66.5,51.1l-1-0.4c-0.5-0.3-0.9-0.9-0.9-1.5l-1.8-13l0.5-0.5l4.9-6.6l2.4,1.8L66,37.2
			l1.2,9.2l14.2-13.7l0.3-16.5l-5.4,7.2l-2.4-1.8L82,11c0.5-0.4,1.2-0.5,1.8-0.3c0.6,0.3,1,0.9,1,1.6l-0.3,21.9l-0.5,0.4l-16.6,16
			L66.5,51.1z"/>
	</g>
</g>
</svg>
