<?xml version="1.0" encoding="utf-8"?>
<!-- Generator: Adobe Illustrator 22.0.1, SVG Export Plug-In . SVG Version: 6.00 Build 0)  -->
<svg version="1.1" id="Layer_1" xmlns="http://www.w3.org/2000/svg" xmlns:xlink="http://www.w3.org/1999/xlink" x="0px" y="0px"
	 viewBox="0 0 115.8 115.8" style="enable-background:new 0 0 115.8 115.8;" xml:space="preserve">
<style type="text/css">
	.st0{fill:#EDEDED;}
	.st1{fill:#F9423A;}
	.st2{fill:#CE3434;}
	.st3{fill:#FFFFFF;}
</style>
<g>
	<circle class="st0" cx="57.9" cy="57.8" r="57.9"/>
	
		<ellipse transform="matrix(0.7016 -0.7126 0.7126 0.7016 -23.9298 58.5005)" class="st1" cx="57.9" cy="57.8" rx="45.1" ry="45.1"/>
</g>
<g>
	<g>
		<path class="st2" d="M62,60c0.6,0.8,0.9,1.8,0.9,3c0,1.7-0.7,3-2,3.9c-1.4,0.9-3.3,1.4-5.9,1.4H44.6V49h9.8c2.5,0,4.3,0.5,5.6,1.4
			c1.3,0.9,1.9,2.1,1.9,3.7c0,0.9-0.2,1.7-0.7,2.5c-0.4,0.7-1.1,1.3-1.9,1.7C60.5,58.6,61.3,59.2,62,60z M50,52.9v3.7h3.7
			c1.8,0,2.8-0.6,2.8-1.9c0-1.2-0.9-1.8-2.8-1.8H50z M57.4,62.3c0-1.3-1-2-2.9-2H50v3.9h4.6C56.4,64.3,57.4,63.6,57.4,62.3z"/>
		<path class="st2" d="M65.7,49h5.4v19.3h-5.4V49z"/>
	</g>
	<g>
		<path class="st3" d="M62,58.5c0.6,0.8,0.9,1.8,0.9,3c0,1.7-0.7,3-2,3.9c-1.4,0.9-3.3,1.4-5.9,1.4H44.6V47.4h9.8
			c2.5,0,4.3,0.5,5.6,1.4c1.3,0.9,1.9,2.1,1.9,3.7c0,0.9-0.2,1.7-0.7,2.5c-0.4,0.7-1.1,1.3-1.9,1.7C60.5,57,61.3,57.6,62,58.5z
			 M50,51.4v3.7h3.7c1.8,0,2.8-0.6,2.8-1.9c0-1.2-0.9-1.8-2.8-1.8H50z M57.4,60.8c0-1.3-1-2-2.9-2H50v3.9h4.6
			C56.4,62.8,57.4,62.1,57.4,60.8z"/>
		<path class="st3" d="M65.7,47.4h5.4v19.3h-5.4V47.4z"/>
	</g>
</g>
</svg>
