<?xml version="1.0" encoding="utf-8"?>
<!-- Generator: Adobe Illustrator 22.0.1, SVG Export Plug-In . SVG Version: 6.00 Build 0)  -->
<svg version="1.1" id="Layer_1" xmlns="http://www.w3.org/2000/svg" xmlns:xlink="http://www.w3.org/1999/xlink" x="0px" y="0px"
	 viewBox="0 0 115.8000031 115.8000031" style="enable-background:new 0 0 115.8000031 115.8000031;" xml:space="preserve">
<g>
	<g>
		<circle style="fill:#30567B;" cx="57.9000015" cy="57.9000015" r="57.9000015"/>
		
			<ellipse transform="matrix(0.7015887 -0.7125821 0.7125821 0.7015887 -23.9799461 58.5362511)" style="fill:#002554;" cx="57.8999634" cy="57.8992195" rx="45.0683823" ry="45.067646"/>
	</g>
	<g>
		<g>
			<g>
				<path style="fill:#011E3D;" d="M37.7931175,67.309906L37.7383537,57.10606l-4.9503555,8.306385h-2.4204178l-4.9233627-8.0310211
					v9.9284821h-5.0328903V48.0576591h4.4829369l6.7660561,11.11092l6.6009941-11.11092h4.4829369L42.799015,67.309906H37.7931175z"
					/>
				<path style="fill:#011E3D;" d="M62.1338005,67.309906L62.0790329,57.10606l-4.9503555,8.306385h-2.4204178l-4.9233627-8.0310211
					v9.9284821h-5.0328903V48.0576591h4.4829369l6.7660561,11.11092l6.6009941-11.11092h4.4829369l0.0547638,19.2522469H62.1338005z
					"/>
				<path style="fill:#011E3D;" d="M71.3202744,67.1170731c-1.4678345-0.3848877-2.6595306-0.8978195-3.5758667-1.5395584
					l1.7879333-4.0155182c0.8615723,0.5684662,1.8604355,1.0266342,2.9973679,1.3745003
					c1.1369324,0.3486404,2.2553482,0.5229568,3.3560333,0.5229568c2.0902863,0,3.1354294-0.5229568,3.1354294-1.5681
					c0-0.5499535-0.2985001-0.9572144-0.8939667-1.22332c-0.5962296-0.2661057-1.5542145-0.5453262-2.8739548-0.8391991
					c-1.4493179-0.311615-2.659523-0.6463699-3.6306229-1.0034943c-0.9718628-0.3578949-1.8064423-0.9309883-2.5029449-1.7192802
					c-0.6972733-0.7882919-1.0451431-1.8519478-1.0451431-3.190197c0-1.1731834,0.3208694-2.2322121,0.9626083-3.1770821
					c0.6417465-0.9441032,1.5997314-1.6915131,2.8739548-2.2414703c1.274231-0.5499535,2.836937-0.8253136,4.6896515-0.8253136
					c1.2649765,0,2.5114365,0.1426926,3.7401505,0.4265404c1.2287216,0.2846184,2.3101196,0.7011337,3.2457352,1.2518578
					l-1.6776276,4.042511c-1.8342133-0.9896088-3.6128845-1.4847984-5.3360214-1.4847984
					c-1.0821686,0-1.8704605,0.1604347-2.3648834,0.4813042c-0.4951859,0.3208733-0.7427826,0.7381592-0.7427826,1.2510872
					c0,0.5137024,0.2930984,0.8985939,0.8800812,1.1554451c0.5862045,0.2568512,1.530304,0.5221863,2.8330765,0.7975502
					c1.4662857,0.311615,2.6811218,0.6463699,3.6437302,1.0034904c0.962616,0.3578949,1.7971878,0.9263611,2.5029526,1.7053986
					c0.7057571,0.779808,1.059021,1.8388367,1.059021,3.1770821c0,1.1546745-0.3208694,2.1998177-0.9626083,3.1354332
					c-0.6417389,0.934845-1.6051254,1.6822586-2.8878403,2.2414703c-1.2834854,0.5592041-2.8423309,0.8384247-4.675766,0.8384247
					C74.2991257,67.6947937,72.7865601,67.502739,71.3202744,67.1170731z"/>
			</g>
			<g>
				<path style="fill:#011E3D;" d="M94.3806763,61.912178c-0.3447876,0.2221413-0.7651596,0.3918343-1.261116,0.5106163
					c-0.4951935,0.1180153-1.0235519,0.1774063-1.5835342,0.1774063c-1.5233612,0-2.6942291-0.3848915-3.5126114-1.1546707
					c-0.8191452-0.7690125-1.228714-1.9167404-1.228714-3.4416504v-4.040966h-1.7023163V50.809742h1.7023163v-3.130806h4.0949554
					v3.130806h2.6718674v3.1531715h-2.6718674v3.9970016c0,0.4288559,0.1110764,0.7659264,0.3339844,1.0096626
					c0.2221451,0.2445107,0.5206451,0.3663788,0.8939667,0.3663788c0.4743652,0,0.8908768-0.1249542,1.2503204-0.3771782
					L94.3806763,61.912178z"/>
			</g>
		</g>
		<g>
			<g>
				<path style="fill:#FFFFFF;" d="M37.7931175,65.717598l-0.0547638-10.203846l-4.9503555,8.306385h-2.4204178
					l-4.9233627-8.0310249v9.9284859h-5.0328903V46.4653473h4.4829369l6.7660561,11.1109238l6.6009941-11.1109238h4.4829369
					L42.799015,65.717598H37.7931175z"/>
				<path style="fill:#FFFFFF;" d="M62.1338005,65.717598l-0.0547676-10.203846l-4.9503555,8.306385h-2.4204178
					l-4.9233627-8.0310249v9.9284859h-5.0328903V46.4653473h4.4829369l6.7660561,11.1109238l6.6009941-11.1109238h4.4829369
					l0.0547638,19.2522507H62.1338005z"/>
				<path style="fill:#FFFFFF;" d="M71.3202744,65.524765c-1.4678345-0.3848877-2.6595306-0.8978195-3.5758667-1.5395622
					l1.7879333-4.0155144c0.8615723,0.5684662,1.8604355,1.0266342,2.9973679,1.3745003
					c1.1369324,0.3486404,2.2553482,0.5229568,3.3560333,0.5229568c2.0902863,0,3.1354294-0.5229568,3.1354294-1.5681
					c0-0.5499535-0.2985001-0.9572144-0.8939667-1.22332c-0.5962296-0.2661057-1.5542145-0.5453262-2.8739548-0.8392029
					c-1.4493179-0.311615-2.659523-0.6463661-3.6306229-1.0034904c-0.9718628-0.3578949-1.8064423-0.9309883-2.5029449-1.7192802
					c-0.6972733-0.7882957-1.0451431-1.8519516-1.0451431-3.190197c0-1.1731834,0.3208694-2.2322121,0.9626083-3.1770859
					c0.6417465-0.9440994,1.5997314-1.6915131,2.8739548-2.2414665c1.274231-0.5499535,2.836937-0.8253174,4.6896515-0.8253174
					c1.2649765,0,2.5114365,0.1426964,3.7401505,0.4265442c1.2287216,0.2846184,2.3101196,0.7011337,3.2457352,1.2518578
					l-1.6776276,4.042511c-1.8342133-0.9896088-3.6128845-1.4847984-5.3360214-1.4847984
					c-1.0821686,0-1.8704605,0.1604347-2.3648834,0.4813042c-0.4951859,0.3208694-0.7427826,0.7381592-0.7427826,1.2510872
					c0,0.5137024,0.2930984,0.8985939,0.8800812,1.1554451c0.5862045,0.2568512,1.530304,0.5221863,2.8330765,0.7975464
					c1.4662857,0.311615,2.6811218,0.6463699,3.6437302,1.0034943c0.962616,0.3578949,1.7971878,0.9263611,2.5029526,1.7053986
					c0.7057571,0.779808,1.059021,1.8388367,1.059021,3.1770821c0,1.1546707-0.3208694,2.1998177-0.9626083,3.1354332
					c-0.6417389,0.934845-1.6051254,1.6822586-2.8878403,2.2414703c-1.2834854,0.5592041-2.8423309,0.8384247-4.675766,0.8384247
					C74.2991257,66.1024857,72.7865601,65.9104233,71.3202744,65.524765z"/>
			</g>
			<g>
				<path style="fill:#FFFFFF;" d="M94.3806763,60.31987c-0.3447876,0.2221413-0.7651596,0.3918343-1.261116,0.5106163
					c-0.4951935,0.1180115-1.0235519,0.1774063-1.5835342,0.1774063c-1.5233612,0-2.6942291-0.3848915-3.5126114-1.1546745
					c-0.8191452-0.7690086-1.228714-1.9167404-1.228714-3.4416466v-4.040966h-1.7023163v-3.1531715h1.7023163v-3.130806h4.0949554
					v3.130806h2.6718674v3.1531715h-2.6718674v3.9970016c0,0.4288559,0.1110764,0.7659225,0.3339844,1.0096626
					c0.2221451,0.2445107,0.5206451,0.3663788,0.8939667,0.3663788c0.4743652,0,0.8908768-0.1249542,1.2503204-0.3771782
					L94.3806763,60.31987z"/>
			</g>
		</g>
	</g>
</g>
</svg>
