<?xml version="1.0" encoding="utf-8"?>
<!-- Generator: Adobe Illustrator 22.0.1, SVG Export Plug-In . SVG Version: 6.00 Build 0)  -->
<svg version="1.1" id="Layer_1" xmlns="http://www.w3.org/2000/svg" xmlns:xlink="http://www.w3.org/1999/xlink" x="0px" y="0px"
	 viewBox="0 0 115.8 115.8" style="enable-background:new 0 0 115.8 115.8;" xml:space="preserve">
<style type="text/css">
	.st0{fill:#3EB1C8;}
	.st1{fill:#007396;}
	.st2{fill:#01576B;}
	.st3{fill:#FFFFFF;}
</style>
<g>
	<g>
		<circle class="st0" cx="57.9" cy="57.9" r="57.9"/>
		
			<ellipse transform="matrix(0.7016 -0.7126 0.7126 0.7016 -23.9799 58.5363)" class="st1" cx="57.9" cy="57.9" rx="45.1" ry="45.1"/>
	</g>
	<g>
		<g>
			<path class="st2" d="M60.4,67.7l-0.1-10.2l-5,8.3H53l-4.9-8v9.9h-5V48.4h4.5l6.8,11.1l6.6-11.1h4.5l0.1,19.3H60.4z"/>
			<path class="st2" d="M67.3,48.4h5.4v19.3h-5.4V48.4z"/>
		</g>
		<g>
			<path class="st3" d="M60.4,66.1l-0.1-10.2l-5,8.3H53l-4.9-8v9.9h-5V46.9h4.5L54.3,58l6.6-11.1h4.5l0.1,19.3H60.4z"/>
			<path class="st3" d="M67.3,46.9h5.4v19.3h-5.4V46.9z"/>
		</g>
	</g>
</g>
</svg>
