<?xml version="1.0" encoding="utf-8"?>
<!-- Generator: Adobe Illustrator 22.0.1, SVG Export Plug-In . SVG Version: 6.00 Build 0)  -->
<svg version="1.1" id="Layer_1" xmlns="http://www.w3.org/2000/svg" xmlns:xlink="http://www.w3.org/1999/xlink" x="0px" y="0px"
	 viewBox="0 0 115.8000031 115.8000031" style="enable-background:new 0 0 115.8000031 115.8000031;" xml:space="preserve">
<g>
	<g>
		<circle style="fill:#FED141;" cx="57.9000015" cy="57.9000015" r="57.9000015"/>
		
			<ellipse transform="matrix(0.7015887 -0.7125821 0.7125821 0.7015887 -23.9799461 58.5362511)" style="fill:#8B211C;" cx="57.8999634" cy="57.8992195" rx="45.0683823" ry="45.067646"/>
	</g>
	<g>
		<g>
			<path style="fill:#57150F;" d="M43.5016899,49.3087463c1.2834854,0.5777206,2.2738647,1.4022675,2.9703712,2.4751778
				c0.6965027,1.0729103,1.0451431,2.3332558,1.0451431,3.7818031c0,1.4485435-0.3486404,2.7050323-1.0451431,3.7679176
				c-0.6965065,1.0636559-1.6868858,1.8843422-2.9703712,2.4612923c-1.2834816,0.5777245-2.7968216,0.8669701-4.5384712,0.8669701
				h-3.3552628v5.0328865h-5.4455471V48.4425468h8.8008099C40.7048683,48.4425468,42.2182083,48.7310219,43.5016899,49.3087463z
				 M41.1638069,57.642128c0.5684662-0.4851608,0.852314-1.1778107,0.852314-2.0764008
				c0-0.8978233-0.2838478-1.5951004-0.852314-2.0902901s-1.4122963-0.7427864-2.5307159-0.7427864h-3.025135v5.638382h3.025135
				C39.7515106,58.3710327,40.5953407,58.1280632,41.1638069,57.642128z"/>
			<path style="fill:#57150F;" d="M62.4654694,54.1904564c1.1276741,1.0999069,1.6915131,2.7597961,1.6915131,4.9781227v8.5262146
				h-5.2257233v-7.67313c0-2.0355225-0.8160591-3.0528984-2.4481812-3.0528984c-0.8978233,0-1.6182404,0.2931023-2.158165,0.8800774
				c-0.5414696,0.5869789-0.8114357,1.4670601-0.8114357,2.6402435v7.2057076h-5.22649V47.2871056h5.22649v6.8755798
				c0.5676956-0.5314407,1.2372055-0.934845,2.0069885-1.2094345c0.7705536-0.2753639,1.5950966-0.4126587,2.4759483-0.4126587
				C59.8475952,52.5405922,61.3377914,53.0905457,62.4654694,54.1904564z"/>
			<path style="fill:#57150F;" d="M65.7790756,48.4425468h9.1039429c2.1080246,0,3.9792633,0.394146,5.6113815,1.1824417
				c1.6313553,0.7882919,2.8963242,1.9074821,3.7949142,3.3552589c0.8978271,1.4485474,1.3482742,3.1446877,1.3482742,5.0884247
				s-0.4504471,3.6398773-1.3482742,5.0876541c-0.8985901,1.4493179-2.163559,2.5677338-3.7949142,3.3560333
				c-1.6321182,0.7882919-3.5033569,1.1824341-5.6113815,1.1824341h-9.1039429V48.4425468z M74.6631927,63.3491554
				c1.6506348,0,2.9742203-0.4674225,3.9738617-1.4022675c0.9996338-0.9356155,1.4994507-2.2283554,1.4994507-3.8782158
				c0-1.6506348-0.4998169-2.9433746-1.4994507-3.8782158c-0.9996414-0.934845-2.3232269-1.4022675-3.9738617-1.4022675h-3.4385681
				v10.5609665H74.6631927z"/>
		</g>
		<g>
			<path style="fill:#FFFFFF;" d="M43.5016899,47.7164345c1.2834854,0.5777245,2.2738647,1.4022675,2.9703712,2.4751816
				c0.6965027,1.0729103,1.0451431,2.333252,1.0451431,3.7817993s-0.3486404,2.7050362-1.0451431,3.7679176
				c-0.6965065,1.0636559-1.6868858,1.884346-2.9703712,2.4612961c-1.2834816,0.5777206-2.7968216,0.8669701-4.5384712,0.8669701
				h-3.3552628v5.0328865h-5.4455471V46.8502388h8.8008099C40.7048683,46.8502388,42.2182083,47.1387138,43.5016899,47.7164345z
				 M41.1638069,56.0498199c0.5684662-0.4851608,0.852314-1.1778107,0.852314-2.0764046
				c0-0.8978195-0.2838478-1.5950966-0.852314-2.0902863s-1.4122963-0.7427864-2.5307159-0.7427864h-3.025135v5.6383781h3.025135
				C39.7515106,56.7787209,40.5953407,56.5357552,41.1638069,56.0498199z"/>
			<path style="fill:#FFFFFF;" d="M62.4654694,52.5981445c1.1276741,1.0999107,1.6915131,2.7598,1.6915131,4.9781265v8.5262146
				h-5.2257233v-7.67313c0-2.0355263-0.8160591-3.0529022-2.4481812-3.0529022c-0.8978233,0-1.6182404,0.2931061-2.158165,0.8800812
				c-0.5414696,0.5869789-0.8114357,1.4670601-0.8114357,2.6402435v7.2057076h-5.22649V45.6947975h5.22649v6.8755798
				c0.5676956-0.5314407,1.2372055-0.934845,2.0069885-1.2094345c0.7705536-0.2753639,1.5950966-0.4126587,2.4759483-0.4126587
				C59.8475952,50.9482841,61.3377914,51.4982376,62.4654694,52.5981445z"/>
			<path style="fill:#FFFFFF;" d="M65.7790756,46.8502388h9.1039429c2.1080246,0,3.9792633,0.394146,5.6113815,1.1824417
				c1.6313553,0.7882919,2.8963242,1.9074821,3.7949142,3.3552589c0.8978271,1.4485435,1.3482742,3.1446877,1.3482742,5.0884247
				s-0.4504471,3.6398773-1.3482742,5.0876503c-0.8985901,1.4493179-2.163559,2.5677376-3.7949142,3.3560295
				c-1.6321182,0.7882996-3.5033569,1.1824417-5.6113815,1.1824417h-9.1039429V46.8502388z M74.6631927,61.7568474
				c1.6506348,0,2.9742203-0.4674225,3.9738617-1.4022675c0.9996338-0.9356155,1.4994507-2.2283554,1.4994507-3.8782158
				c0-1.6506348-0.4998169-2.9433746-1.4994507-3.8782196c-0.9996414-0.934845-2.3232269-1.4022675-3.9738617-1.4022675h-3.4385681
				v10.5609703H74.6631927z"/>
		</g>
	</g>
</g>
</svg>
